<?xml version="1.0" encoding="utf-8"?>
<!-- Generator: Adobe Illustrator 19.0.0, SVG Export Plug-In . SVG Version: 6.00 Build 0)  -->
<svg version="1.1" id="Layer_1" xmlns="http://www.w3.org/2000/svg" xmlns:xlink="http://www.w3.org/1999/xlink" x="0px" y="0px"
	 viewBox="286.6 5.3 1462.5 486.4" style="enable-background:new 286.6 5.3 1462.5 486.4;" xml:space="preserve">
<style type="text/css">
	.st0{fill:#DB3C40;}
	.st1{fill:#1EA2D2;}
	.st2{fill:#94B948;}
	.st3{fill:#EDAB17;}
</style>
<g>
	<path class="st0" d="M476.4,6.2c-11,0-21.2,4.3-29,12c-7.7,7.7-12,18-12,28.9v106.8H328.6c-10.9,0-21.2,4.3-28.9,12
		c-7.7,7.7-12,18-12,28.9c0,22.6,18.4,40.9,40.9,40.9h147c10.9,0,21.2-4.2,29-12l0.7-0.7c7.7-7.7,12-18,12-28.9v-147
		c0-10.9-4.3-21.2-12-29C497.5,10.4,487.2,6.2,476.4,6.2z"/>
</g>
<g>
	<path class="st1" d="M591.9,490.3c11,0,21.2-4.3,29-12c7.7-7.7,12-18,12-28.9V342.6h106.8c10.9,0,21.2-4.3,28.9-12s12-18,12-28.9
		c0-22.6-18.4-40.9-40.9-40.9h-147c-10.9,0-21.2,4.2-29,12l-0.7,0.7c-7.7,7.7-12,18-12,28.9v147c0,10.9,4.3,21.2,12,29
		C570.7,486.1,581,490.3,591.9,490.3z"/>
</g>
<g>
	<path class="st2" d="M286.6,303c0,11,4.3,21.2,12,29c7.7,7.7,18,12,28.9,12h106.8v106.8c0,10.9,4.3,21.2,12,28.9
		c7.7,7.7,18,12,28.9,12c22.6,0,40.9-18.4,40.9-40.9v-147c0-10.9-4.2-21.2-12-29l-0.7-0.7c-7.7-7.7-18-12-28.9-12h-147
		c-10.9,0-21.2,4.3-29,12C290.8,281.9,286.6,292.2,286.6,303z"/>
</g>
<g>
	<path class="st3" d="M781.4,193.9c0-11-4.3-21.2-12-29c-7.7-7.7-18-12-28.9-12H633.7V46.2c0-10.9-4.3-21.2-12-28.9s-18-12-28.9-12
		c-22.6,0-40.9,18.4-40.9,40.9v147c0,10.9,4.2,21.2,12,29l0.7,0.7c7.7,7.7,18,12,28.9,12h147c10.9,0,21.2-4.3,29-12
		C777.2,215.1,781.4,204.8,781.4,193.9z"/>
</g>
<g>
	<path d="M912.7,355.6c-25.4,0-46.1-8.5-62.3-25.5s-24.2-38.9-24.2-65.7c0-25.4,7.9-46.9,23.7-64.5s35.7-26.4,59.6-26.4
		c25.4,0,45.4,8.7,60,26.2s21.9,39.4,21.9,65.7v5H846.3c1,19.6,7.5,36,19.7,49.2s28.2,19.7,48.1,19.7c23,0,41.9-8,56.7-24.1
		l9.7,12.2C962.6,346.3,940,355.6,912.7,355.6z M972.3,255.8c-0.2-16.8-5.8-32-16.7-45.6s-26.4-20.5-46.5-20.5
		c-18.9,0-33.9,6.8-45.1,20.3c-11.1,13.5-17.1,28.8-17.8,45.8L972.3,255.8L972.3,255.8z"/>
	<path d="M1131.7,351.3h-128.2v-15.4l102.7-141.5h-102.7v-16.5h126.8V193l-103.8,141.8h105.2V351.3z"/>
</g>
<g>
	<path d="M1346.8,325.9c-18.3,18.1-45.2,27.1-80.6,27.1s-62.3-9-80.6-27.1c-18.3-18.1-27.5-42.4-27.5-73.1V109.2h51.7v142.2
		c0,17.2,4.9,30.9,14.7,41.1c9.8,10.2,23.7,15.3,41.7,15.3s31.8-5.1,41.5-15.3c9.7-10.2,14.5-23.9,14.5-41.1V109.2h52.1v143.6
		C1374.3,283.5,1365.1,307.9,1346.8,325.9z"/>
	<path d="M1598,348.7h-58.9l-47-85.1h-37.3v85.1h-51V109.2h112c24.7,0,44.3,7.2,58.9,21.5c14.6,14.4,21.9,32.9,21.9,55.7
		c0,19.6-5.2,35.5-15.6,47.8c-10.4,12.2-22.8,20-37.2,23.3L1598,348.7z M1508.6,218.8c10.3,0,18.8-2.9,25.5-8.8s10.1-13.8,10.1-23.9
		c0-9.6-3.4-17.3-10.1-23.2c-6.7-5.9-15.2-8.8-25.5-8.8h-53.9v64.6L1508.6,218.8L1508.6,218.8z"/>
	<path d="M1673.4,353c-15.1,0-29.5-2.4-43.3-7.2c-13.8-4.8-25.2-11.4-34.3-19.7l19.8-33c6.9,6.5,16.1,12.1,27.5,16.9
		s22.2,7.2,32.5,7.2c19.4,0,29.1-6.1,29.1-18.3c0-4.3-2.5-7.8-7.5-10.6c-5-2.7-11.4-4.7-19-5.7c-7.7-1.1-15.9-2.9-24.8-5.4
		s-17.1-5.4-24.8-8.6c-7.7-3.2-14-8.5-19-15.8s-7.5-16.3-7.5-27.1c0-15.3,6.3-28.2,19-38.8c12.7-10.5,30-15.8,52.1-15.8
		c26.6,0,49.8,7.9,69.7,23.7l-18.3,32.3c-5.5-5.7-12.9-10.5-22.3-14.4c-9.3-3.8-19-5.7-29.1-5.7c-8.1,0-14.7,1.6-19.7,4.7
		s-7.5,7.2-7.5,12.2c0,4.6,3.5,8.1,10.6,10.6s15.7,4.7,25.9,6.6c10.2,1.9,20.3,4.5,30.3,7.7c10.1,3.2,18.6,9,25.7,17.2
		c7.1,8.3,10.6,18.9,10.6,31.8c0,16.3-6.7,29.6-20.1,39.9C1715.3,347.9,1696.8,353,1673.4,353z"/>
</g>
</svg>
