<?xml version="1.0" encoding="utf-8"?>
<!-- Generator: Adobe Illustrator 19.0.0, SVG Export Plug-In . SVG Version: 6.00 Build 0)  -->
<svg version="1.1" id="Layer_1" xmlns="http://www.w3.org/2000/svg" xmlns:xlink="http://www.w3.org/1999/xlink" x="0px" y="0px"
	 viewBox="-263.7 241.1 257 87" style="enable-background:new -263.7 241.1 257 87;" xml:space="preserve">
<style type="text/css">
	.st0{fill:none;}
	.st1{fill:#1EA2D2;}
	.st2{fill:#EDAB17;}
	.st3{fill:#94B948;}
	.st4{fill:#DB3C40;}
</style>
<g>
	<path id="XMLID_531_" class="st0" d="M-260.1,759.9c4.6,0,8.3-1.6,11.3-4.7l-1.6-2.1c-2.5,2.7-5.6,4-9.5,4c-3.3,0-6-1.1-8-3.3
		s-3.1-5-3.3-8.3h24.2v-0.8c0-4.4-1.2-8.1-3.7-11c-2.4-2.9-5.8-4.4-10-4.4c-4,0-7.3,1.5-9.9,4.4c-2.6,3-4,6.6-4,10.8
		c0,4.5,1.3,8.2,4,11C-267.8,758.5-264.4,759.9-260.1,759.9z M-268.2,735.4c1.9-2.3,4.4-3.4,7.5-3.4c3.4,0,5.9,1.1,7.8,3.4
		c1.8,2.3,2.7,4.8,2.8,7.7h-21C-271.1,740.3-270.1,737.7-268.2,735.4z M-223.8,732.6V730H-245v2.8h17.1l-17.1,23.8v2.6h21.4v-2.8
		h-17.5L-223.8,732.6z M-201.2,759.5c5.9,0,10.4-1.5,13.4-4.6c3.1-3,4.6-7.1,4.6-12.3v-24.1h-8.7v23.9c0,2.9-0.8,5.2-2.4,6.9
		c-1.6,1.7-3.9,2.6-6.9,2.6s-5.3-0.9-6.9-2.6c-1.6-1.7-2.5-4-2.5-6.9v-23.9h-8.6v24.1c0,5.2,1.5,9.2,4.6,12.3
		C-211.6,758-207.1,759.5-201.2,759.5z M-169.7,744.5h6.2l7.8,14.3h9.8l-9-15.3c2.4-0.6,4.5-1.9,6.2-3.9c1.7-2.1,2.6-4.7,2.6-8
		c0-3.8-1.2-6.9-3.7-9.4c-2.4-2.4-5.7-3.6-9.8-3.6h-18.7v40.3h8.5L-169.7,744.5L-169.7,744.5z M-169.7,726h9c1.7,0,3.1,0.5,4.3,1.5
		c1.1,1,1.7,2.3,1.7,3.9c0,1.7-0.6,3-1.7,4c-1.1,1-2.5,1.5-4.3,1.5h-9V726z M-140.7,745.3c1.3,0.5,2.7,1,4.1,1.4
		c1.5,0.4,2.9,0.7,4.1,0.9c1.3,0.2,2.3,0.5,3.2,1c0.8,0.5,1.3,1.1,1.3,1.8c0,2.1-1.6,3.1-4.9,3.1c-1.7,0-3.5-0.4-5.4-1.2
		s-3.4-1.8-4.6-2.8l-3.3,5.6c1.5,1.4,3.4,2.5,5.7,3.3s4.7,1.2,7.2,1.2c3.9,0,7-0.9,9.2-2.6c2.2-1.7,3.4-4,3.4-6.7
		c0-2.2-0.6-4-1.8-5.3c-1.2-1.4-2.6-2.4-4.3-2.9s-3.4-1-5.1-1.3c-1.7-0.3-3.1-0.7-4.3-1.1c-1.2-0.4-1.8-1-1.8-1.8s0.4-1.5,1.3-2.1
		c0.8-0.5,1.9-0.8,3.3-0.8c1.7,0,3.3,0.3,4.9,1c1.6,0.6,2.8,1.4,3.7,2.4l3.1-5.4c-3.3-2.7-7.2-4-11.6-4c-3.7,0-6.6,0.9-8.7,2.7
		c-2.1,1.8-3.2,3.9-3.2,6.5c0,1.8,0.4,3.3,1.3,4.6C-143.1,743.8-142,744.7-140.7,745.3z M-270.3,772.2c-0.3,0-0.7,0.1-1,0.3
		c-0.3,0.2-0.5,0.4-0.7,0.7c-0.1-0.3-0.2-0.5-0.4-0.7c-0.2-0.2-0.5-0.3-0.9-0.3c-0.3,0-0.7,0.1-1,0.3c-0.3,0.2-0.5,0.4-0.7,0.6v-0.8
		h-0.5v5.1h0.5v-3.9c0.2-0.2,0.4-0.4,0.6-0.6c0.3-0.2,0.5-0.3,0.8-0.3c0.7,0,1,0.4,1,1.2v3.6h0.6v-3.9c0.1-0.2,0.4-0.4,0.6-0.6
		c0.3-0.2,0.5-0.3,0.8-0.3c0.7,0,1,0.4,1,1.2v3.6h0.5v-3.7C-268.9,772.7-269.4,772.2-270.3,772.2z M-265.6,772.2
		c-0.7,0-1.3,0.3-1.7,0.8c-0.5,0.5-0.7,1.1-0.7,1.9c0,0.8,0.2,1.4,0.7,1.9s1.1,0.7,1.8,0.7c0.8,0,1.5-0.3,2-0.8l-0.3-0.4
		c-0.4,0.5-1,0.7-1.7,0.7c-0.6,0-1-0.2-1.4-0.6c-0.4-0.4-0.5-0.9-0.6-1.4h4.2v-0.1c0-0.8-0.2-1.4-0.6-1.9
		C-264.3,772.5-264.9,772.2-265.6,772.2z M-267.4,774.6c0-0.5,0.2-0.9,0.5-1.3c0.3-0.4,0.8-0.6,1.3-0.6c0.6,0,1,0.2,1.4,0.6
		c0.3,0.4,0.5,0.8,0.5,1.3H-267.4z M-258.6,773.2c-0.2-0.3-0.5-0.5-0.8-0.7c-0.3-0.2-0.6-0.3-1-0.3c-0.7,0-1.2,0.2-1.6,0.7
		c-0.4,0.5-0.6,1.1-0.6,1.9c0,0.8,0.2,1.5,0.6,1.9c0.4,0.5,1,0.7,1.6,0.7c0.4,0,0.7-0.1,1-0.3c0.3-0.2,0.6-0.4,0.7-0.7v0.8h0.7v-7
		h-0.6V773.2z M-258.6,776.2c-0.2,0.3-0.4,0.5-0.7,0.6c-0.3,0.2-0.6,0.3-1,0.3c-0.5,0-1-0.2-1.3-0.6c-0.3-0.4-0.5-0.9-0.5-1.6
		c0-0.6,0.2-1.2,0.5-1.6c0.3-0.4,0.7-0.6,1.3-0.6c0.3,0,0.7,0.1,1,0.3c0.3,0.2,0.5,0.4,0.7,0.7V776.2z M-256.6,770.7
		c-0.1,0-0.2,0-0.3,0.1c-0.1,0.1-0.1,0.2-0.1,0.3s0,0.2,0.1,0.3c0.1,0.1,0.2,0.1,0.3,0.1s0.2,0,0.3-0.1s0.1-0.2,0.1-0.3
		s0-0.2-0.1-0.3S-256.5,770.7-256.6,770.7z M-256.9,777.4h0.5v-5.1h-0.5V777.4z M-253,772.7c0.6,0,1,0.2,1.4,0.7l0.4-0.3
		c-0.5-0.6-1.1-0.9-1.8-0.9c-0.7,0-1.3,0.3-1.8,0.8s-0.7,1.1-0.7,1.9c0,0.8,0.2,1.4,0.7,1.9s1,0.8,1.8,0.8c0.7,0,1.3-0.3,1.8-0.9
		l-0.4-0.3c-0.3,0.5-0.8,0.7-1.4,0.7c-0.6,0-1-0.2-1.4-0.6c-0.3-0.4-0.5-0.9-0.5-1.6c0-0.6,0.2-1.1,0.5-1.6
		C-254,772.9-253.5,772.7-253,772.7z M-248.6,772.2c-0.8,0-1.4,0.3-1.9,0.9l0.3,0.4c0.4-0.5,1-0.8,1.6-0.8c0.4,0,0.7,0.1,1,0.3
		c0.3,0.2,0.4,0.5,0.4,0.9v1c-0.4-0.5-1-0.7-1.7-0.7c-0.5,0-0.9,0.1-1.2,0.4c-0.4,0.3-0.5,0.7-0.5,1.2s0.2,0.9,0.5,1.2
		c0.4,0.3,0.8,0.5,1.2,0.5c0.7,0,1.3-0.2,1.7-0.7v0.6h0.5v-3.6c0-0.5-0.2-1-0.5-1.2C-247.6,772.3-248,772.2-248.6,772.2z
		 M-247.3,776.4c-0.4,0.5-0.9,0.7-1.5,0.7c-0.4,0-0.7-0.1-1-0.4c-0.3-0.2-0.4-0.5-0.4-0.9s0.1-0.7,0.4-0.9c0.3-0.2,0.6-0.4,1-0.4
		c0.7,0,1.2,0.2,1.5,0.7V776.4z M-245.6,777.4h0.6v-7h-0.5L-245.6,777.4L-245.6,777.4z M-239.4,772.7c0.6,0,1,0.2,1.4,0.7l0.4-0.3
		c-0.5-0.6-1.1-0.9-1.8-0.9s-1.3,0.3-1.8,0.8s-0.7,1.1-0.7,1.9c0,0.8,0.2,1.4,0.7,1.9s1,0.8,1.8,0.8c0.7,0,1.3-0.3,1.8-0.9l-0.4-0.3
		c-0.3,0.5-0.8,0.7-1.4,0.7c-0.6,0-1-0.2-1.4-0.6c-0.3-0.4-0.5-0.9-0.5-1.6c0-0.6,0.2-1.1,0.5-1.6
		C-240.5,772.9-240,772.7-239.4,772.7z M-234.9,772.2c-0.7,0-1.3,0.3-1.8,0.8c-0.4,0.5-0.7,1.1-0.7,1.9c0,0.8,0.2,1.4,0.7,1.9
		c0.4,0.5,1,0.8,1.8,0.8c0.7,0,1.3-0.3,1.8-0.8c0.4-0.5,0.7-1.2,0.7-1.9c0-0.8-0.2-1.4-0.7-1.9
		C-233.5,772.5-234.1,772.2-234.9,772.2z M-233.5,776.4c-0.3,0.4-0.8,0.6-1.4,0.6c-0.6,0-1-0.2-1.3-0.6c-0.3-0.4-0.5-0.9-0.5-1.5
		s0.2-1.1,0.5-1.5s0.8-0.6,1.3-0.6c0.6,0,1,0.2,1.4,0.6c0.3,0.4,0.5,0.9,0.5,1.5S-233.2,776-233.5,776.4z M-229.3,774.7
		c-0.3-0.1-0.6-0.2-0.9-0.2c-0.3-0.1-0.6-0.2-0.8-0.3s-0.3-0.3-0.3-0.5c0-0.3,0.1-0.5,0.3-0.7c0.2-0.2,0.5-0.3,0.9-0.3
		c0.7,0,1.2,0.2,1.5,0.7l0.3-0.4c-0.4-0.5-1.1-0.8-1.8-0.8c-0.6,0-1,0.1-1.3,0.4c-0.3,0.3-0.5,0.6-0.5,1c0,0.3,0.1,0.6,0.3,0.8
		s0.5,0.4,0.8,0.4c0.3,0.1,0.6,0.2,0.9,0.2c0.3,0.1,0.6,0.2,0.8,0.3c0.2,0.1,0.3,0.3,0.3,0.6s-0.1,0.6-0.4,0.7
		c-0.2,0.2-0.6,0.3-1,0.3c-0.3,0-0.7-0.1-0.9-0.2c-0.3-0.1-0.5-0.3-0.7-0.5l-0.3,0.4c0.5,0.5,1.1,0.8,2,0.8c0.6,0,1.1-0.1,1.4-0.4
		c0.3-0.3,0.5-0.6,0.5-1.1c0-0.4-0.1-0.7-0.3-0.9C-228.7,775-228.9,774.8-229.3,774.7z M-226.1,777.1c-0.3,0-0.5-0.2-0.5-0.7v-3.5h1
		v-0.5h-1V771h-0.6v1.4h-0.8v0.5h0.8v3.6c0,0.7,0.3,1.1,1,1.1c0.3,0,0.6-0.1,0.9-0.3l-0.2-0.4C-225.6,777-225.8,777.1-226.1,777.1z
		 M-220.5,773.4c0.5,0,0.8,0.2,1.1,0.5l0.9-0.8c-0.4-0.6-1.1-0.9-2-0.9c-0.8,0-1.4,0.3-1.9,0.8s-0.8,1.1-0.8,1.9
		c0,0.8,0.3,1.4,0.8,1.9s1.1,0.8,1.9,0.8c0.9,0,1.6-0.3,2-0.9l-0.9-0.8c-0.3,0.4-0.6,0.6-1.1,0.6c-0.4,0-0.7-0.1-1-0.4
		c-0.3-0.3-0.4-0.6-0.4-1.1s0.1-0.8,0.4-1.1C-221.2,773.5-220.9,773.4-220.5,773.4z M-215.8,772.2c-0.8,0-1.5,0.3-1.9,0.8
		c-0.5,0.5-0.7,1.1-0.7,1.9c0,0.8,0.2,1.4,0.7,1.9s1.1,0.8,1.9,0.8s1.5-0.3,2-0.8s0.7-1.2,0.7-1.9c0-0.8-0.2-1.4-0.7-1.9
		C-214.4,772.5-215,772.2-215.8,772.2z M-214.9,775.9c-0.2,0.3-0.5,0.4-1,0.4c-0.4,0-0.7-0.1-0.9-0.4c-0.2-0.3-0.3-0.6-0.3-1.1
		c0-0.4,0.1-0.8,0.3-1.1s0.5-0.4,0.9-0.4c0.4,0,0.7,0.1,1,0.4c0.2,0.3,0.3,0.6,0.3,1.1C-214.5,775.3-214.6,775.6-214.9,775.9z
		 M-209.6,772.2c-0.4,0-0.7,0.1-1,0.2c-0.3,0.2-0.6,0.3-0.7,0.6v-0.7h-1.3v5.1h1.3V774c0.3-0.4,0.7-0.6,1.2-0.6c0.6,0,0.9,0.3,0.9,1
		v3.1h1.3v-3.6c0-0.5-0.1-0.9-0.4-1.2C-208.6,772.3-209,772.2-209.6,772.2z M-205.1,776.4c-0.1,0-0.3-0.1-0.3-0.2
		c-0.1-0.1-0.1-0.2-0.1-0.4v-2.3h1v-1.2h-1v-1.4h-1.3v1.4h-0.8v1.2h0.8v2.7c0,0.9,0.5,1.4,1.4,1.4c0.5,0,0.9-0.1,1.1-0.3l-0.3-1
		C-204.7,776.3-204.8,776.4-205.1,776.4z M-200.4,772.7c-0.4-0.3-0.9-0.5-1.6-0.5c-0.9,0-1.6,0.3-2.2,0.8l0.5,0.9
		c0.4-0.4,0.9-0.6,1.5-0.6c0.3,0,0.6,0.1,0.8,0.2c0.2,0.2,0.3,0.4,0.3,0.6v0.6c-0.3-0.4-0.9-0.6-1.6-0.6c-0.5,0-0.9,0.1-1.2,0.4
		c-0.3,0.3-0.5,0.7-0.5,1.2s0.2,0.9,0.5,1.2c0.4,0.3,0.8,0.4,1.2,0.4c0.7,0,1.2-0.2,1.6-0.7v0.5h1.3v-3.3
		C-199.7,773.5-199.9,773-200.4,772.7z M-201.1,776.2c-0.2,0.3-0.6,0.4-1.1,0.4c-0.3,0-0.5-0.1-0.7-0.2c-0.2-0.1-0.3-0.3-0.3-0.6
		s0.1-0.4,0.3-0.6c0.2-0.1,0.4-0.2,0.7-0.2c0.5,0,0.8,0.2,1.1,0.5V776.2z M-198.9,777.4h1.3v-5.1h-1.3V777.4z M-198.3,770.2
		c-0.2,0-0.4,0.1-0.6,0.2c-0.2,0.2-0.2,0.3-0.2,0.6c0,0.2,0.1,0.4,0.2,0.6c0.2,0.2,0.3,0.2,0.6,0.2c0.2,0,0.4-0.1,0.6-0.2
		c0.2-0.2,0.2-0.3,0.2-0.6c0-0.2-0.1-0.4-0.2-0.6C-197.9,770.3-198.1,770.2-198.3,770.2z M-193.7,772.2c-0.4,0-0.7,0.1-1,0.2
		c-0.3,0.2-0.6,0.3-0.7,0.6v-0.7h-1.3v5.1h1.3V774c0.3-0.4,0.7-0.6,1.2-0.6c0.6,0,0.9,0.3,0.9,1v3.1h1.3v-3.6c0-0.5-0.1-0.9-0.4-1.2
		C-192.8,772.3-193.2,772.2-193.7,772.2z M-185.1,772.2c-0.4,0-0.7,0.1-1,0.3s-0.6,0.4-0.7,0.6c-0.2-0.6-0.7-0.9-1.4-0.9
		c-0.3,0-0.7,0.1-1,0.3s-0.5,0.3-0.7,0.5v-0.7h-1.3v5.1h1.3V774c0.3-0.4,0.6-0.6,1-0.6c0.5,0,0.8,0.3,0.8,0.8v3.2h1.3V774
		c0.1-0.2,0.3-0.3,0.4-0.4c0.2-0.1,0.4-0.2,0.6-0.2c0.5,0,0.8,0.3,0.8,0.8v3.2h1.3v-3.7c0-0.5-0.1-0.9-0.4-1.2
		C-184.3,772.3-184.7,772.2-185.1,772.2z M-180.6,772.2c-0.8,0-1.4,0.3-1.9,0.8s-0.7,1.1-0.7,1.9c0,0.8,0.3,1.5,0.8,1.9
		c0.5,0.5,1.2,0.7,1.9,0.7c0.9,0,1.6-0.2,2.1-0.7l-0.6-0.8c-0.2,0.2-0.4,0.3-0.6,0.4c-0.3,0.1-0.5,0.1-0.7,0.1c-0.4,0-0.7-0.1-1-0.3
		s-0.4-0.5-0.5-0.8h3.8V775c0-0.8-0.2-1.5-0.7-2S-179.8,772.2-180.6,772.2z M-181.8,774.4c0-0.3,0.1-0.6,0.4-0.8
		c0.2-0.2,0.5-0.3,0.9-0.3c0.4,0,0.7,0.1,0.9,0.3c0.2,0.2,0.3,0.5,0.4,0.8H-181.8z M-174.5,772.2c-0.4,0-0.7,0.1-1,0.2
		c-0.3,0.2-0.6,0.3-0.7,0.6v-0.7h-1.3v5.1h1.3V774c0.3-0.4,0.7-0.6,1.2-0.6c0.6,0,0.9,0.3,0.9,1v3.1h1.3v-3.6c0-0.5-0.1-0.9-0.4-1.2
		C-173.5,772.3-173.9,772.2-174.5,772.2z M-170,776.4c-0.1,0-0.3-0.1-0.3-0.2c-0.1-0.1-0.1-0.2-0.1-0.4v-2.3h1v-1.2h-1v-1.4h-1.3
		v1.4h-0.8v1.2h0.8v2.7c0,0.9,0.5,1.4,1.4,1.4c0.5,0,0.9-0.1,1.1-0.3l-0.3-1C-169.6,776.3-169.8,776.4-170,776.4z M-160.7,772.2
		c-0.4,0-0.7,0.1-1,0.3s-0.6,0.4-0.7,0.6c-0.2-0.6-0.7-0.9-1.4-0.9c-0.3,0-0.7,0.1-1,0.3s-0.5,0.3-0.7,0.5v-0.7h-1.3v5.1h1.3V774
		c0.3-0.4,0.6-0.6,1-0.6c0.5,0,0.8,0.3,0.8,0.8v3.2h1.3V774c0.1-0.2,0.3-0.3,0.4-0.4c0.2-0.1,0.4-0.2,0.6-0.2c0.5,0,0.8,0.3,0.8,0.8
		v3.2h1.3v-3.7c0-0.5-0.1-0.9-0.4-1.2C-159.9,772.3-160.2,772.2-160.7,772.2z M-154.7,772.7c-0.4-0.3-0.9-0.5-1.6-0.5
		c-0.9,0-1.6,0.3-2.2,0.8l0.5,0.9c0.4-0.4,0.9-0.6,1.5-0.6c0.3,0,0.6,0.1,0.8,0.2c0.2,0.2,0.3,0.4,0.3,0.6v0.6
		c-0.3-0.4-0.9-0.6-1.6-0.6c-0.5,0-0.9,0.1-1.2,0.4c-0.3,0.3-0.5,0.7-0.5,1.2s0.2,0.9,0.5,1.2c0.4,0.3,0.8,0.4,1.2,0.4
		c0.7,0,1.2-0.2,1.6-0.7v0.5h1.3v-3.3C-154,773.5-154.3,773-154.7,772.7z M-155.4,776.2c-0.2,0.3-0.6,0.4-1.1,0.4
		c-0.3,0-0.5-0.1-0.7-0.2c-0.2-0.1-0.3-0.3-0.3-0.6s0.1-0.4,0.3-0.6c0.2-0.1,0.4-0.2,0.7-0.2c0.5,0,0.8,0.2,1.1,0.5V776.2z
		 M-149.8,773c-0.4-0.5-0.9-0.8-1.6-0.8c-0.7,0-1.2,0.2-1.6,0.7c-0.4,0.5-0.6,1.1-0.6,1.9c0,0.8,0.2,1.5,0.6,2
		c0.4,0.5,1,0.7,1.6,0.7s1.1-0.3,1.6-0.8v0.7h1.3v-7h-1.3V773z M-149.8,775.8c-0.1,0.2-0.3,0.3-0.5,0.4c-0.2,0.1-0.4,0.2-0.7,0.2
		c-0.4,0-0.7-0.1-0.9-0.4c-0.2-0.3-0.4-0.6-0.4-1.1c0-0.4,0.1-0.8,0.4-1.1c0.2-0.3,0.5-0.4,0.9-0.4c0.2,0,0.4,0.1,0.7,0.2
		c0.2,0.1,0.4,0.2,0.5,0.4V775.8z M-145.3,772.2c-0.8,0-1.4,0.3-1.9,0.8s-0.7,1.1-0.7,1.9c0,0.8,0.3,1.5,0.8,1.9
		c0.5,0.5,1.2,0.7,1.9,0.7c0.9,0,1.6-0.2,2.1-0.7l-0.6-0.9c-0.2,0.2-0.4,0.3-0.6,0.4c-0.3,0.1-0.5,0.1-0.7,0.1c-0.4,0-0.7-0.1-1-0.3
		s-0.4-0.5-0.5-0.8h3.8V775c0-0.8-0.2-1.5-0.7-2C-144,772.5-144.6,772.2-145.3,772.2z M-146.6,774.4c0-0.3,0.1-0.6,0.4-0.8
		c0.2-0.2,0.5-0.3,0.9-0.3s0.7,0.1,0.9,0.3s0.3,0.5,0.4,0.8H-146.6z M-137.9,772.2c-0.8,0-1.4,0.3-1.9,0.8s-0.7,1.1-0.7,1.9
		c0,0.8,0.3,1.5,0.8,1.9c0.5,0.5,1.2,0.7,1.9,0.7c0.9,0,1.6-0.2,2.1-0.7l-0.6-0.9c-0.2,0.2-0.4,0.3-0.6,0.4
		c-0.3,0.1-0.5,0.1-0.7,0.1c-0.4,0-0.7-0.1-1-0.3s-0.4-0.5-0.5-0.8h3.8V775c0-0.8-0.2-1.5-0.7-2
		C-136.5,772.5-137.1,772.2-137.9,772.2z M-139.1,774.4c0-0.3,0.1-0.6,0.4-0.8c0.2-0.2,0.5-0.3,0.9-0.3s0.7,0.1,0.9,0.3
		s0.3,0.5,0.4,0.8H-139.1z M-131.2,772.7c-0.4-0.3-0.9-0.5-1.6-0.5c-0.9,0-1.6,0.3-2.2,0.8l0.5,0.9c0.4-0.4,0.9-0.6,1.5-0.6
		c0.3,0,0.6,0.1,0.8,0.2c0.2,0.2,0.3,0.4,0.3,0.6v0.6c-0.3-0.4-0.9-0.6-1.6-0.6c-0.5,0-0.9,0.1-1.2,0.4c-0.3,0.3-0.5,0.7-0.5,1.2
		s0.2,0.9,0.5,1.2c0.4,0.3,0.8,0.4,1.2,0.4c0.7,0,1.2-0.2,1.6-0.7v0.5h1.3v-3.3C-130.5,773.5-130.8,773-131.2,772.7z M-131.9,776.2
		c-0.2,0.3-0.6,0.4-1.1,0.4c-0.3,0-0.5-0.1-0.7-0.2c-0.2-0.1-0.3-0.3-0.3-0.6s0.1-0.4,0.3-0.6c0.2-0.1,0.4-0.2,0.7-0.2
		c0.5,0,0.8,0.2,1.1,0.5V776.2z M-126.8,774.5c-0.3-0.1-0.6-0.2-0.9-0.2c-0.3-0.1-0.5-0.1-0.8-0.2c-0.2-0.1-0.3-0.2-0.3-0.3
		s0.1-0.3,0.2-0.4c0.1-0.1,0.3-0.1,0.6-0.1s0.6,0.1,0.8,0.2c0.3,0.1,0.5,0.3,0.6,0.4l0.5-1c-0.6-0.5-1.3-0.7-2-0.7
		c-0.6,0-1.1,0.2-1.5,0.5s-0.6,0.7-0.6,1.1c0,0.3,0.1,0.6,0.2,0.8c0.1,0.2,0.3,0.4,0.6,0.5c0.2,0.1,0.5,0.2,0.7,0.3
		c0.3,0.1,0.5,0.1,0.7,0.2c0.2,0,0.4,0.1,0.6,0.2c0.1,0.1,0.2,0.2,0.2,0.3c0,0.4-0.3,0.5-0.8,0.5c-0.3,0-0.6-0.1-0.9-0.2
		c-0.3-0.1-0.6-0.3-0.8-0.5l-0.6,1c0.3,0.2,0.6,0.4,1,0.6c0.4,0.1,0.8,0.2,1.3,0.2c0.7,0,1.2-0.2,1.6-0.5c0.4-0.3,0.6-0.7,0.6-1.2
		c0-0.4-0.1-0.7-0.3-0.9C-126.2,774.8-126.5,774.6-126.8,774.5z M-121.9,772.3l-1.3,3.5l-1.3-3.5h-1.5l2.1,5.2l-0.2,0.4
		c-0.1,0.2-0.3,0.4-0.7,0.4c-0.2,0-0.3,0-0.4-0.1l-0.2,1.2c0.2,0.1,0.4,0.1,0.7,0.1c0.5,0,0.9-0.1,1.2-0.3s0.6-0.5,0.7-0.9l2.4-5.9
		h-1.5V772.3z"/>
</g>
<g id="XMLID_109_">
	<path id="XMLID_9_" class="st1" d="M-208.3,326.8c1.9,0,3.6-0.7,4.9-2c1.3-1.3,2-3.1,2-4.9v-18.2h18.1c1.8,0,3.6-0.7,4.9-2
		c1.3-1.3,2-3.1,2-4.9c0-3.8-3.1-7-6.9-7h-24.9c-1.9,0-3.6,0.7-4.9,2l-0.1,0.2c-1.3,1.3-2,3.1-2,4.9v25c0,1.9,0.7,3.6,2,4.9
		C-211.9,326.1-210.2,326.8-208.3,326.8z"/>
	<path id="XMLID_7_" class="st2" d="M-176.4,274.2c0-1.9-0.7-3.6-2-4.9c-1.3-1.3-3-2-4.9-2h-18.1V249c0-1.9-0.7-3.6-2-4.9
		c-1.3-1.3-3-2-4.9-2c-3.8,0-6.9,3.1-6.9,7v25c0,1.9,0.7,3.6,2,4.9l0.1,0.1c1.3,1.3,3,2,4.9,2h24.9c1.9,0,3.6-0.7,4.9-2
		C-177.1,277.8-176.4,276-176.4,274.2z"/>
	<path id="XMLID_5_" class="st3" d="M-262.4,295c0,1.9,0.7,3.6,2,4.9c1.3,1.3,3,2,4.9,2h18.1v18.2c0,1.9,0.7,3.6,2,4.9
		c1.3,1.3,3,2,4.9,2c3.8,0,6.9-3.1,6.9-7v-25c0-1.9-0.7-3.6-2-4.9l-0.1-0.1c-1.3-1.3-3-2-4.9-2h-24.9c-1.9,0-3.6,0.7-4.9,2
		C-261.7,291.4-262.4,293.2-262.4,295z"/>
	<path id="XMLID_3_" class="st4" d="M-230.5,242.1c-1.9,0-3.6,0.7-4.9,2c-1.3,1.3-2,3.1-2,4.9v18.2h-18.1c-1.8,0-3.6,0.7-4.9,2
		c-1.3,1.3-2,3.1-2,4.9c0,3.8,3.1,7,6.9,7h24.9c1.9,0,3.6-0.7,4.9-2l0.1-0.1c1.3-1.3,2-3.1,2-4.9v-25c0-1.9-0.7-3.6-2-4.9
		C-226.9,242.8-228.6,242.1-230.5,242.1z"/>
	<path id="XMLID_11_" d="M-147.5,294c-4.2,0-7.7-1.4-10.4-4.3c-2.7-2.9-4-6.5-4-11c0-4.3,1.3-7.9,4-10.8c2.6-3,6-4.4,9.9-4.4
		c4.2,0,7.6,1.5,10,4.4s3.7,6.6,3.7,11v0.8h-24.2c0.2,3.3,1.3,6.1,3.3,8.3c2,2.2,4.7,3.3,8,3.3c3.8,0,7-1.3,9.5-4l1.6,2.1
		C-139.2,292.4-142.9,294-147.5,294z M-137.5,277.2c0-2.8-1-5.4-2.8-7.7s-4.4-3.4-7.8-3.4c-3.2,0-5.7,1.1-7.5,3.4
		c-1.9,2.3-2.8,4.8-3,7.7H-137.5z M-110.9,293.2h-21.4v-2.6l17.1-23.8h-17.1V264h21.1v2.5l-17.3,23.8h17.6L-110.9,293.2
		L-110.9,293.2z M-75.1,289c-3.1,3-7.5,4.6-13.4,4.6s-10.4-1.5-13.4-4.6c-3.1-3-4.6-7.1-4.6-12.3v-24.2h8.6v23.9
		c0,2.9,0.8,5.2,2.5,6.9c1.6,1.7,4,2.6,6.9,2.6c3,0,5.3-0.9,6.9-2.6c1.6-1.7,2.4-4,2.4-6.9v-23.9h8.7v24.1
		C-70.5,281.8-72,285.9-75.1,289z M-33.2,292.8H-43l-7.8-14.3H-57v14.3h-8.5v-40.3h18.7c4.1,0,7.4,1.2,9.8,3.6
		c2.4,2.4,3.7,5.5,3.7,9.4c0,3.3-0.9,6-2.6,8c-1.7,2.1-3.8,3.4-6.2,3.9L-33.2,292.8z M-48.1,271c1.7,0,3.1-0.5,4.3-1.5
		c1.1-1,1.7-2.3,1.7-4c0-1.6-0.6-2.9-1.7-3.9s-2.5-1.5-4.3-1.5h-9V271H-48.1z M-20.6,293.5c-2.5,0-4.9-0.4-7.2-1.2
		c-2.3-0.8-4.2-1.9-5.7-3.3l3.3-5.6c1.2,1.1,2.7,2,4.6,2.8c1.9,0.8,3.7,1.2,5.4,1.2c3.2,0,4.9-1,4.9-3.1c0-0.7-0.4-1.3-1.3-1.8
		c-0.8-0.5-1.9-0.8-3.2-1c-1.3-0.2-2.7-0.5-4.1-0.9c-1.5-0.4-2.9-0.9-4.1-1.4c-1.3-0.5-2.3-1.4-3.2-2.7c-0.8-1.2-1.3-2.7-1.3-4.6
		c0-2.6,1.1-4.7,3.2-6.5s5-2.7,8.7-2.7c4.4,0,8.3,1.3,11.6,4l-3.1,5.4c-0.9-1-2.2-1.8-3.7-2.4c-1.6-0.6-3.2-1-4.9-1
		c-1.4,0-2.5,0.3-3.3,0.8s-1.3,1.2-1.3,2.1c0,0.8,0.6,1.4,1.8,1.8c1.2,0.4,2.6,0.8,4.3,1.1c1.7,0.3,3.4,0.8,5.1,1.3s3.1,1.5,4.3,2.9
		c1.2,1.4,1.8,3.2,1.8,5.3c0,2.7-1.1,5-3.4,6.7C-13.6,292.7-16.7,293.5-20.6,293.5z M-156.3,311.5h-0.5v-3.6c0-0.8-0.3-1.2-1-1.2
		c-0.3,0-0.5,0.1-0.8,0.3s-0.5,0.4-0.6,0.6v3.9h-0.6v-3.6c0-0.8-0.3-1.2-1-1.2c-0.3,0-0.5,0.1-0.8,0.3c-0.3,0.2-0.5,0.4-0.6,0.6v3.9
		h-0.5v-5.1h0.5v0.8c0.1-0.2,0.3-0.4,0.7-0.6c0.3-0.2,0.6-0.3,1-0.3s0.7,0.1,0.9,0.3c0.2,0.2,0.4,0.4,0.4,0.7
		c0.2-0.3,0.4-0.5,0.7-0.7c0.3-0.2,0.6-0.3,1-0.3c0.9,0,1.4,0.5,1.4,1.6v3.6H-156.3z M-152.9,311.6c-0.7,0-1.3-0.2-1.8-0.7
		s-0.7-1.1-0.7-1.9c0-0.7,0.2-1.4,0.7-1.9s1-0.8,1.7-0.8s1.3,0.3,1.8,0.8c0.4,0.5,0.6,1.2,0.6,1.9v0.1h-4.2c0,0.6,0.2,1.1,0.6,1.4
		c0.4,0.4,0.8,0.6,1.4,0.6c0.7,0,1.2-0.2,1.7-0.7l0.3,0.4C-151.4,311.3-152.1,311.6-152.9,311.6z M-151.1,308.7
		c0-0.5-0.2-0.9-0.5-1.3s-0.8-0.6-1.4-0.6c-0.6,0-1,0.2-1.3,0.6s-0.5,0.8-0.5,1.3H-151.1z M-145.4,311.5h-0.6v-0.8
		c-0.2,0.3-0.4,0.5-0.7,0.7c-0.3,0.2-0.6,0.3-1,0.3c-0.7,0-1.2-0.2-1.6-0.7c-0.4-0.5-0.6-1.1-0.6-1.9c0-0.8,0.2-1.5,0.6-1.9
		c0.4-0.5,1-0.7,1.6-0.7c0.4,0,0.7,0.1,1,0.3c0.3,0.2,0.6,0.4,0.8,0.7v-2.8h0.6v6.8H-145.4z M-147.6,311.1c0.3,0,0.7-0.1,1-0.3
		c0.3-0.2,0.5-0.4,0.7-0.6v-2.5c-0.2-0.3-0.4-0.5-0.7-0.7c-0.3-0.2-0.6-0.3-1-0.3c-0.5,0-1,0.2-1.3,0.6s-0.5,0.9-0.5,1.6
		c0,0.6,0.2,1.2,0.5,1.6C-148.6,310.9-148.2,311.1-147.6,311.1z M-144,305.6c-0.1,0-0.2,0-0.3-0.1s-0.1-0.2-0.1-0.3
		c0-0.1,0-0.2,0.1-0.3s0.2-0.1,0.3-0.1s0.2,0,0.3,0.1s0.1,0.2,0.1,0.3s0,0.2-0.1,0.3C-143.7,305.5-143.8,305.6-144,305.6z
		 M-143.7,311.5h-0.5v-5.1h0.5V311.5z M-140.3,311.6c-0.7,0-1.3-0.3-1.8-0.8s-0.7-1.2-0.7-1.9c0-0.8,0.2-1.4,0.7-1.9s1-0.8,1.8-0.8
		c0.7,0,1.3,0.3,1.8,0.9l-0.4,0.3c-0.3-0.5-0.8-0.7-1.4-0.7c-0.6,0-1,0.2-1.4,0.6c-0.3,0.4-0.5,0.9-0.5,1.6c0,0.6,0.2,1.1,0.5,1.6
		c0.3,0.4,0.8,0.6,1.4,0.6c0.6,0,1-0.2,1.4-0.7l0.4,0.3C-139,311.3-139.6,311.6-140.3,311.6z M-134.1,311.5h-0.5v-0.6
		c-0.4,0.5-1,0.7-1.7,0.7c-0.5,0-0.9-0.2-1.2-0.5c-0.4-0.3-0.5-0.7-0.5-1.2s0.2-0.9,0.5-1.2c0.4-0.3,0.8-0.4,1.2-0.4
		c0.7,0,1.3,0.2,1.7,0.7v-1c0-0.4-0.1-0.7-0.4-0.9c-0.3-0.2-0.6-0.3-1-0.3c-0.6,0-1.2,0.3-1.6,0.8l-0.3-0.4c0.5-0.6,1.2-0.9,1.9-0.9
		c0.5,0,1,0.1,1.3,0.4c0.3,0.3,0.5,0.7,0.5,1.2v3.6H-134.1z M-136.2,311.2c0.7,0,1.2-0.2,1.5-0.7v-1.1c-0.4-0.5-0.9-0.7-1.5-0.7
		c-0.4,0-0.7,0.1-1,0.4c-0.3,0.2-0.4,0.5-0.4,0.9s0.1,0.7,0.4,0.9C-136.9,311-136.6,311.2-136.2,311.2z M-132.4,311.5h-0.5v-7h0.5
		V311.5z M-126.8,311.6c-0.7,0-1.3-0.3-1.8-0.8s-0.7-1.2-0.7-1.9c0-0.8,0.2-1.4,0.7-1.9s1-0.8,1.8-0.8c0.7,0,1.3,0.3,1.8,0.9
		l-0.4,0.3c-0.3-0.5-0.8-0.7-1.4-0.7c-0.6,0-1,0.2-1.4,0.6c-0.3,0.4-0.5,0.9-0.5,1.6c0,0.6,0.2,1.1,0.5,1.6c0.3,0.4,0.8,0.6,1.4,0.6
		c0.6,0,1-0.2,1.4-0.7l0.4,0.3C-125.5,311.3-126.1,311.6-126.8,311.6z M-122.2,311.6c-0.7,0-1.3-0.3-1.8-0.8
		c-0.4-0.5-0.7-1.2-0.7-1.9c0-0.8,0.2-1.4,0.7-1.9c0.4-0.5,1-0.8,1.8-0.8c0.7,0,1.3,0.3,1.8,0.8c0.4,0.5,0.7,1.1,0.7,1.9
		c0,0.8-0.2,1.4-0.7,1.9S-121.5,311.6-122.2,311.6z M-122.2,311.1c0.6,0,1-0.2,1.4-0.6c0.3-0.4,0.5-0.9,0.5-1.5s-0.2-1.1-0.5-1.5
		s-0.8-0.6-1.4-0.6c-0.6,0-1,0.2-1.3,0.6s-0.5,0.9-0.5,1.5s0.2,1.1,0.5,1.5S-122.8,311.1-122.2,311.1z M-117.4,311.6
		c-0.8,0-1.5-0.3-2-0.8l0.3-0.4c0.2,0.2,0.4,0.4,0.7,0.5s0.6,0.2,0.9,0.2c0.4,0,0.7-0.1,1-0.3c0.2-0.2,0.4-0.4,0.4-0.7
		c0-0.3-0.1-0.5-0.3-0.6c-0.2-0.1-0.5-0.3-0.8-0.3c-0.3-0.1-0.6-0.2-0.9-0.2c-0.3-0.1-0.6-0.2-0.8-0.4c-0.2-0.2-0.3-0.5-0.3-0.8
		c0-0.4,0.2-0.7,0.5-1c0.3-0.3,0.8-0.4,1.3-0.4c0.8,0,1.4,0.3,1.8,0.8l-0.3,0.4c-0.3-0.5-0.8-0.7-1.5-0.7c-0.4,0-0.7,0.1-0.9,0.3
		c-0.2,0.2-0.3,0.4-0.3,0.7c0,0.2,0.1,0.4,0.3,0.5s0.5,0.2,0.8,0.3s0.6,0.2,0.9,0.2c0.3,0.1,0.6,0.3,0.8,0.5
		c0.2,0.2,0.3,0.5,0.3,0.9s-0.2,0.8-0.5,1.1C-116.3,311.5-116.8,311.6-117.4,311.6z M-113.5,311.6c-0.7,0-1-0.4-1-1.1v-3.6h-0.8
		v-0.5h0.8V305h0.6v1.4h1v0.5h-1v3.5c0,0.5,0.2,0.7,0.5,0.7c0.2,0,0.4-0.1,0.6-0.2l0.2,0.4C-112.9,311.5-113.2,311.6-113.5,311.6z
		 M-107.9,311.6c-0.8,0-1.4-0.3-1.9-0.8s-0.8-1.1-0.8-1.9c0-0.8,0.3-1.4,0.8-1.9s1.1-0.8,1.9-0.8c0.9,0,1.6,0.3,2,0.9l-0.9,0.8
		c-0.2-0.4-0.6-0.5-1.1-0.5c-0.4,0-0.7,0.1-1,0.4c-0.3,0.3-0.4,0.6-0.4,1.1c0,0.4,0.1,0.8,0.4,1.1c0.3,0.3,0.6,0.4,1,0.4
		c0.5,0,0.8-0.2,1.1-0.6l0.9,0.8C-106.3,311.3-107,311.6-107.9,311.6z M-101.2,310.8c-0.5,0.5-1.1,0.8-2,0.8s-1.5-0.3-1.9-0.8
		c-0.5-0.5-0.7-1.2-0.7-1.9c0-0.8,0.2-1.4,0.7-1.9s1.1-0.8,1.9-0.8s1.5,0.3,2,0.8s0.7,1.1,0.7,1.9S-100.7,310.3-101.2,310.8z
		 M-103.2,310.4c0.4,0,0.7-0.1,1-0.4c0.2-0.3,0.3-0.6,0.3-1.1c0-0.4-0.1-0.8-0.3-1.1c-0.2-0.3-0.5-0.4-1-0.4c-0.4,0-0.7,0.1-0.9,0.4
		c-0.2,0.3-0.3,0.6-0.3,1.1c0,0.4,0.1,0.8,0.3,1.1S-103.6,310.4-103.2,310.4z M-95.3,311.5h-1.3v-3.1c0-0.6-0.3-1-0.9-1
		c-0.5,0-0.8,0.2-1.2,0.6v3.4h-1.3v-5.1h1.3v0.7c0.2-0.2,0.4-0.4,0.7-0.6c0.3-0.2,0.7-0.2,1-0.2c0.5,0,1,0.1,1.2,0.4
		c0.3,0.3,0.4,0.7,0.4,1.2v3.7H-95.3z M-92.8,311.6c-1,0-1.4-0.5-1.4-1.4v-2.7H-95v-1.2h0.8V305h1.3v1.4h1v1.2h-1v2.3
		c0,0.2,0,0.3,0.1,0.4c0.1,0.1,0.2,0.2,0.3,0.2c0.2,0,0.4-0.1,0.5-0.2l0.3,1C-91.9,311.5-92.3,311.6-92.8,311.6z M-87.1,311.5h-1.3
		V311c-0.4,0.4-0.9,0.7-1.6,0.7c-0.4,0-0.9-0.1-1.2-0.4c-0.4-0.3-0.5-0.7-0.5-1.2c0-0.6,0.2-1,0.5-1.2c0.3-0.3,0.8-0.4,1.2-0.4
		c0.7,0,1.3,0.2,1.6,0.6v-0.6c0-0.3-0.1-0.5-0.3-0.6c-0.2-0.2-0.5-0.2-0.8-0.2c-0.5,0-1,0.2-1.5,0.6l-0.5-0.9
		c0.6-0.5,1.3-0.8,2.2-0.8c0.7,0,1.2,0.2,1.6,0.5c0.4,0.3,0.6,0.8,0.6,1.5V311.5z M-89.5,310.7c0.5,0,0.9-0.1,1.1-0.4v-0.6
		c-0.2-0.3-0.6-0.5-1.1-0.5c-0.3,0-0.5,0.1-0.7,0.2s-0.3,0.3-0.3,0.6c0,0.3,0.1,0.4,0.3,0.6C-90,310.6-89.8,310.7-89.5,310.7z
		 M-85.6,305.8c-0.2,0-0.4-0.1-0.6-0.2c-0.2-0.2-0.2-0.3-0.2-0.6c0-0.2,0.1-0.4,0.2-0.6c0.2-0.2,0.3-0.2,0.6-0.2
		c0.2,0,0.4,0.1,0.6,0.2c0.2,0.2,0.2,0.3,0.2,0.6c0,0.2-0.1,0.4-0.2,0.6C-85.2,305.7-85.4,305.8-85.6,305.8z M-85,311.5h-1.3v-5.1
		h1.3V311.5z M-79.4,311.5h-1.3v-3.1c0-0.6-0.3-1-0.9-1c-0.5,0-0.8,0.2-1.2,0.6v3.4h-1.3v-5.1h1.3v0.7c0.2-0.2,0.4-0.4,0.7-0.6
		c0.3-0.2,0.7-0.2,1-0.2c0.5,0,1,0.1,1.2,0.4c0.3,0.3,0.4,0.7,0.4,1.2v3.7H-79.4z M-71,311.5h-1.3v-3.2c0-0.5-0.3-0.8-0.8-0.8
		c-0.2,0-0.4,0.1-0.6,0.2c-0.2,0.1-0.3,0.3-0.4,0.4v3.4h-1.3v-3.2c0-0.5-0.3-0.8-0.8-0.8c-0.4,0-0.8,0.2-1,0.6v3.4h-1.3v-5.1h1.3
		v0.6c0.1-0.2,0.4-0.4,0.7-0.5c0.3-0.2,0.6-0.3,1-0.3c0.7,0,1.2,0.3,1.4,0.9c0.2-0.2,0.4-0.5,0.7-0.6c0.3-0.2,0.7-0.3,1-0.3
		c0.5,0,0.8,0.1,1.1,0.4c0.3,0.3,0.4,0.6,0.4,1.2L-71,311.5L-71,311.5z M-67.8,311.6c-0.8,0-1.4-0.2-1.9-0.7s-0.8-1.1-0.8-1.9
		c0-0.7,0.2-1.4,0.7-1.9s1.1-0.8,1.9-0.8c0.8,0,1.4,0.3,1.8,0.8c0.5,0.5,0.7,1.2,0.7,2v0.3h-3.8c0,0.3,0.2,0.6,0.5,0.8
		c0.3,0.2,0.6,0.3,1,0.3c0.2,0,0.5,0,0.7-0.1c0.3-0.1,0.5-0.2,0.6-0.4l0.6,0.9C-66.2,311.4-66.9,311.6-67.8,311.6z M-66.7,308.4
		c0-0.3-0.1-0.5-0.4-0.8c-0.2-0.2-0.5-0.3-0.9-0.3s-0.7,0.1-0.9,0.3c-0.2,0.2-0.3,0.5-0.4,0.8H-66.7z M-60.2,311.5h-1.3v-3.1
		c0-0.6-0.3-1-0.9-1c-0.5,0-0.8,0.2-1.2,0.6v3.4h-1.3v-5.1h1.3v0.7c0.2-0.2,0.4-0.4,0.7-0.6c0.3-0.2,0.7-0.2,1-0.2
		c0.5,0,1,0.1,1.2,0.4c0.3,0.3,0.4,0.7,0.4,1.2v3.7H-60.2z M-57.7,311.6c-1,0-1.4-0.5-1.4-1.4v-2.7H-60v-1.2h0.8V305h1.3v1.4h1v1.2
		h-1v2.3c0,0.2,0,0.3,0.1,0.4c0.1,0.1,0.2,0.2,0.3,0.2c0.2,0,0.4-0.1,0.5-0.2l0.3,1C-56.8,311.5-57.2,311.6-57.7,311.6z
		 M-46.6,311.5h-1.3v-3.2c0-0.5-0.3-0.8-0.8-0.8c-0.2,0-0.4,0.1-0.6,0.2c-0.2,0.1-0.3,0.3-0.4,0.4v3.4H-51v-3.2
		c0-0.5-0.3-0.8-0.8-0.8c-0.4,0-0.8,0.2-1,0.6v3.4h-1.3v-5.1h1.3v0.6c0.1-0.2,0.4-0.4,0.7-0.5c0.3-0.2,0.6-0.3,1-0.3
		c0.7,0,1.2,0.3,1.4,0.9c0.2-0.2,0.4-0.5,0.7-0.6c0.3-0.2,0.7-0.3,1-0.3c0.5,0,0.8,0.1,1.1,0.4c0.3,0.3,0.4,0.6,0.4,1.2v3.7H-46.6z
		 M-41.4,311.5h-1.3V311c-0.4,0.4-0.9,0.7-1.6,0.7c-0.4,0-0.9-0.1-1.2-0.4c-0.4-0.3-0.5-0.7-0.5-1.2c0-0.6,0.2-1,0.5-1.2
		c0.3-0.3,0.8-0.4,1.2-0.4c0.7,0,1.3,0.2,1.6,0.6v-0.6c0-0.3-0.1-0.5-0.3-0.6c-0.2-0.2-0.5-0.2-0.8-0.2c-0.5,0-1,0.2-1.5,0.6
		l-0.5-0.9c0.6-0.5,1.3-0.8,2.2-0.8c0.7,0,1.2,0.2,1.6,0.5c0.4,0.3,0.6,0.8,0.6,1.5L-41.4,311.5L-41.4,311.5z M-43.8,310.7
		c0.5,0,0.9-0.1,1.1-0.4v-0.6c-0.2-0.3-0.6-0.5-1.1-0.5c-0.3,0-0.5,0.1-0.7,0.2s-0.3,0.3-0.3,0.6c0,0.3,0.1,0.4,0.3,0.6
		C-44.3,310.6-44.1,310.7-43.8,310.7z M-35.8,311.5h-1.3v-0.7c-0.4,0.5-0.9,0.8-1.6,0.8s-1.2-0.2-1.6-0.7s-0.6-1.1-0.6-2
		c0-0.8,0.2-1.5,0.6-1.9c0.4-0.5,1-0.7,1.6-0.7s1.2,0.3,1.6,0.8v-2.6h1.3V311.5z M-38.3,310.4c0.2,0,0.4-0.1,0.7-0.2
		c0.2-0.1,0.4-0.2,0.5-0.4V308c-0.1-0.2-0.3-0.3-0.5-0.4c-0.2-0.1-0.4-0.2-0.7-0.2c-0.4,0-0.7,0.1-0.9,0.4c-0.2,0.3-0.4,0.6-0.4,1.1
		c0,0.4,0.1,0.8,0.4,1.1C-39,310.3-38.7,310.4-38.3,310.4z M-32.6,311.6c-0.8,0-1.4-0.2-1.9-0.7s-0.8-1.1-0.8-1.9
		c0-0.7,0.2-1.4,0.7-1.9s1.1-0.8,1.9-0.8s1.4,0.3,1.8,0.8c0.5,0.5,0.7,1.2,0.7,2v0.3H-34c0,0.3,0.2,0.6,0.5,0.8
		c0.3,0.2,0.6,0.3,1,0.3c0.2,0,0.5,0,0.7-0.1c0.3-0.1,0.5-0.2,0.6-0.4l0.6,0.9C-31,311.4-31.7,311.6-32.6,311.6z M-31.4,308.4
		c0-0.3-0.1-0.5-0.4-0.8c-0.2-0.2-0.5-0.3-0.9-0.3s-0.7,0.1-0.9,0.3c-0.2,0.2-0.3,0.5-0.4,0.8H-31.4z M-25.2,311.6
		c-0.8,0-1.4-0.2-1.9-0.7s-0.8-1.1-0.8-1.9c0-0.7,0.2-1.4,0.7-1.9s1.1-0.8,1.9-0.8s1.4,0.3,1.8,0.8c0.5,0.5,0.7,1.2,0.7,2v0.3h-3.8
		c0,0.3,0.2,0.6,0.5,0.8c0.3,0.2,0.6,0.3,1,0.3c0.2,0,0.5,0,0.7-0.1c0.3-0.1,0.5-0.2,0.6-0.4l0.6,0.9
		C-23.6,311.4-24.3,311.6-25.2,311.6z M-24,308.4c0-0.3-0.1-0.5-0.4-0.8c-0.2-0.2-0.5-0.3-0.9-0.3s-0.7,0.1-0.9,0.3
		c-0.2,0.2-0.3,0.5-0.4,0.8H-24z M-17.9,311.5h-1.3V311c-0.4,0.4-0.9,0.7-1.6,0.7c-0.4,0-0.9-0.1-1.2-0.4c-0.4-0.3-0.5-0.7-0.5-1.2
		c0-0.6,0.2-1,0.5-1.2c0.3-0.3,0.8-0.4,1.2-0.4c0.7,0,1.3,0.2,1.6,0.6v-0.6c0-0.3-0.1-0.5-0.3-0.6c-0.2-0.2-0.5-0.2-0.8-0.2
		c-0.5,0-1,0.2-1.5,0.6l-0.5-0.9c0.6-0.5,1.3-0.8,2.2-0.8c0.7,0,1.2,0.2,1.6,0.5c0.4,0.3,0.6,0.8,0.6,1.5L-17.9,311.5L-17.9,311.5z
		 M-20.3,310.7c0.5,0,0.9-0.1,1.1-0.4v-0.6c-0.2-0.3-0.6-0.5-1.1-0.5c-0.3,0-0.5,0.1-0.7,0.2s-0.3,0.3-0.3,0.6
		c0,0.3,0.1,0.4,0.3,0.6C-20.8,310.6-20.6,310.7-20.3,310.7z M-15.3,311.6c-0.4,0-0.9-0.1-1.3-0.2s-0.7-0.3-1-0.6l0.6-1
		c0.2,0.2,0.5,0.4,0.8,0.5c0.3,0.1,0.6,0.2,0.9,0.2c0.6,0,0.8-0.2,0.8-0.5c0-0.1-0.1-0.2-0.2-0.3c-0.1-0.1-0.3-0.1-0.6-0.2
		c-0.2,0-0.5-0.1-0.7-0.2c-0.3-0.1-0.5-0.2-0.7-0.3s-0.4-0.3-0.6-0.5c-0.1-0.2-0.2-0.5-0.2-0.8c0-0.5,0.2-0.8,0.6-1.1
		c0.4-0.3,0.9-0.5,1.5-0.5c0.8,0,1.5,0.2,2,0.7l-0.5,1c-0.2-0.2-0.4-0.3-0.6-0.4c-0.3-0.1-0.6-0.2-0.8-0.2c-0.2,0-0.4,0-0.6,0.1
		c-0.1,0.1-0.2,0.2-0.2,0.4c0,0.1,0.1,0.2,0.3,0.3c0.2,0.1,0.5,0.1,0.8,0.2c0.3,0.1,0.6,0.1,0.9,0.2s0.5,0.3,0.7,0.5
		c0.2,0.2,0.3,0.6,0.3,0.9c0,0.5-0.2,0.9-0.6,1.2C-14.1,311.4-14.6,311.6-15.3,311.6z M-12.8,313.5l0.2-1.2c0.1,0.1,0.3,0.1,0.4,0.1
		c0.4,0,0.6-0.1,0.7-0.4l0.2-0.4l-2.1-5.2h1.4l1.3,3.5l1.3-3.5H-8l-2.4,5.9c-0.2,0.5-0.4,0.8-0.7,0.9c-0.3,0.2-0.7,0.3-1.2,0.3
		C-12.4,313.5-12.6,313.5-12.8,313.5z"/>
</g>
</svg>
